# .PCD v0.7 - Point Cloud Data file format
VERSION 0.7
FIELDS x y z
SIZE 4 4 4
TYPE F F F
COUNT 1 1 1
WIDTH 2850
HEIGHT 1
VIEWPOINT 0 0 0 1 0 0 0
POINTS 2850
DATA ascii
3.0999999 -0.2 0.050000001
3.0999999 -0.2 0.15000001
3.0999999 -0.2 0.25
3.0999999 -0.2 0.34999999
3.0999999 -0.2 0.44999999
3.0999999 -0.2 0.55000001
3.0999999 -0.2 0.64999998
3.0999999 -0.2 0.75
3.0999999 -0.2 0.85000002
3.0999999 -0.2 0.94999999
3.0999999 -0.2 1.05
3.0999999 -0.2 1.15
3.0999999 -0.2 1.25
3.0999999 -0.2 1.35
3.0999999 -0.2 1.45
3.0999999 -0.2 1.55
3.0999999 -0.2 1.65
3.0999999 -0.2 1.75
3.0999999 -0.2 1.85
3.0999999 -0.2 1.95
3.0999999 -0.2 2.05
3.0999999 -0.2 2.1500001
3.0999999 -0.2 2.25
3.0999999 -0.2 2.3499999
3.0999999 -0.2 2.45
3 -0.2 0.050000001
3 -0.2 0.15000001
3 -0.2 0.25
3 -0.2 0.34999999
3 -0.2 0.44999999
3 -0.2 0.55000001
3 -0.2 0.64999998
3 -0.2 0.75
3 -0.2 0.85000002
3 -0.2 0.94999999
3 -0.2 1.05
3 -0.2 1.15
3 -0.2 1.25
3 -0.2 1.35
3 -0.2 1.45
3 -0.2 1.55
3 -0.2 1.65
3 -0.2 1.75
3 -0.2 1.85
3 -0.2 1.95
3 -0.2 2.05
3 -0.2 2.1500001
3 -0.2 2.25
3 -0.2 2.3499999
3 -0.2 2.45
2.9000001 -0.2 0.050000001
2.9000001 -0.2 0.15000001
2.9000001 -0.2 0.25
2.9000001 -0.2 0.34999999
2.9000001 -0.2 0.44999999
2.9000001 -0.2 0.55000001
2.9000001 -0.2 0.64999998
2.9000001 -0.2 0.75
2.9000001 -0.2 0.85000002
2.9000001 -0.2 0.94999999
2.9000001 -0.2 1.05
2.9000001 -0.2 1.15
2.9000001 -0.2 1.25
2.9000001 -0.2 1.35
2.9000001 -0.2 1.45
2.9000001 -0.2 1.55
2.9000001 -0.2 1.65
2.9000001 -0.2 1.75
2.9000001 -0.2 1.85
2.9000001 -0.2 1.95
2.9000001 -0.2 2.05
2.9000001 -0.2 2.1500001
2.9000001 -0.2 2.25
2.9000001 -0.2 2.3499999
2.9000001 -0.2 2.45
3.0999999 -0.1 0.050000001
3.0999999 -0.1 0.15000001
3.0999999 -0.1 0.25
3.0999999 -0.1 0.34999999
3.0999999 -0.1 0.44999999
3.0999999 -0.1 0.55000001
3.0999999 -0.1 0.64999998
3.0999999 -0.1 0.75
3.0999999 -0.1 0.85000002
3.0999999 -0.1 0.94999999
3.0999999 -0.1 1.05
3.0999999 -0.1 1.15
3.0999999 -0.1 1.25
3.0999999 -0.1 1.35
3.0999999 -0.1 1.45
3.0999999 -0.1 1.55
3.0999999 -0.1 1.65
3.0999999 -0.1 1.75
3.0999999 -0.1 1.85
3.0999999 -0.1 1.95
3.0999999 -0.1 2.05
3.0999999 -0.1 2.1500001
3.0999999 -0.1 2.25
3.0999999 -0.1 2.3499999
3.0999999 -0.1 2.45
3 -0.1 0.050000001
3 -0.1 0.15000001
3 -0.1 0.25
3 -0.1 0.34999999
3 -0.1 0.44999999
3 -0.1 0.55000001
3 -0.1 0.64999998
3 -0.1 0.75
3 -0.1 0.85000002
3 -0.1 0.94999999
3 -0.1 1.05
3 -0.1 1.15
3 -0.1 1.25
3 -0.1 1.35
3 -0.1 1.45
3 -0.1 1.55
3 -0.1 1.65
3 -0.1 1.75
3 -0.1 1.85
3 -0.1 1.95
3 -0.1 2.05
3 -0.1 2.1500001
3 -0.1 2.25
3 -0.1 2.3499999
3 -0.1 2.45
2.9000001 -0.1 0.050000001
2.9000001 -0.1 0.15000001
2.9000001 -0.1 0.25
2.9000001 -0.1 0.34999999
2.9000001 -0.1 0.44999999
2.9000001 -0.1 0.55000001
2.9000001 -0.1 0.64999998
2.9000001 -0.1 0.75
2.9000001 -0.1 0.85000002
2.9000001 -0.1 0.94999999
2.9000001 -0.1 1.05
2.9000001 -0.1 1.15
2.9000001 -0.1 1.25
2.9000001 -0.1 1.35
2.9000001 -0.1 1.45
2.9000001 -0.1 1.55
2.9000001 -0.1 1.65
2.9000001 -0.1 1.75
2.9000001 -0.1 1.85
2.9000001 -0.1 1.95
2.9000001 -0.1 2.05
2.9000001 -0.1 2.1500001
2.9000001 -0.1 2.25
2.9000001 -0.1 2.3499999
2.9000001 -0.1 2.45
3.0999999 0 0.050000001
3.0999999 0 0.15000001
3.0999999 0 0.25
3.0999999 0 0.34999999
3.0999999 0 0.44999999
3.0999999 0 0.55000001
3.0999999 0 0.64999998
3.0999999 0 0.75
3.0999999 0 0.85000002
3.0999999 0 0.94999999
3.0999999 0 1.05
3.0999999 0 1.15
3.0999999 0 1.25
3.0999999 0 1.35
3.0999999 0 1.45
3.0999999 0 1.55
3.0999999 0 1.65
3.0999999 0 1.75
3.0999999 0 1.85
3.0999999 0 1.95
3.0999999 0 2.05
3.0999999 0 2.1500001
3.0999999 0 2.25
3.0999999 0 2.3499999
3.0999999 0 2.45
3 0 0.050000001
3 0 0.15000001
3 0 0.25
3 0 0.34999999
3 0 0.44999999
3 0 0.55000001
3 0 0.64999998
3 0 0.75
3 0 0.85000002
3 0 0.94999999
3 0 1.05
3 0 1.15
3 0 1.25
3 0 1.35
3 0 1.45
3 0 1.55
3 0 1.65
3 0 1.75
3 0 1.85
3 0 1.95
3 0 2.05
3 0 2.1500001
3 0 2.25
3 0 2.3499999
3 0 2.45
2.9000001 0 0.050000001
2.9000001 0 0.15000001
2.9000001 0 0.25
2.9000001 0 0.34999999
2.9000001 0 0.44999999
2.9000001 0 0.55000001
2.9000001 0 0.64999998
2.9000001 0 0.75
2.9000001 0 0.85000002
2.9000001 0 0.94999999
2.9000001 0 1.05
2.9000001 0 1.15
2.9000001 0 1.25
2.9000001 0 1.35
2.9000001 0 1.45
2.9000001 0 1.55
2.9000001 0 1.65
2.9000001 0 1.75
2.9000001 0 1.85
2.9000001 0 1.95
2.9000001 0 2.05
2.9000001 0 2.1500001
2.9000001 0 2.25
2.9000001 0 2.3499999
2.9000001 0 2.45
3.0999999 0.1 0.050000001
3.0999999 0.1 0.15000001
3.0999999 0.1 0.25
3.0999999 0.1 0.34999999
3.0999999 0.1 0.44999999
3.0999999 0.1 0.55000001
3.0999999 0.1 0.64999998
3.0999999 0.1 0.75
3.0999999 0.1 0.85000002
3.0999999 0.1 0.94999999
3.0999999 0.1 1.05
3.0999999 0.1 1.15
3.0999999 0.1 1.25
3.0999999 0.1 1.35
3.0999999 0.1 1.45
3.0999999 0.1 1.55
3.0999999 0.1 1.65
3.0999999 0.1 1.75
3.0999999 0.1 1.85
3.0999999 0.1 1.95
3.0999999 0.1 2.05
3.0999999 0.1 2.1500001
3.0999999 0.1 2.25
3.0999999 0.1 2.3499999
3.0999999 0.1 2.45
3 0.1 0.050000001
3 0.1 0.15000001
3 0.1 0.25
3 0.1 0.34999999
3 0.1 0.44999999
3 0.1 0.55000001
3 0.1 0.64999998
3 0.1 0.75
3 0.1 0.85000002
3 0.1 0.94999999
3 0.1 1.05
3 0.1 1.15
3 0.1 1.25
3 0.1 1.35
3 0.1 1.45
3 0.1 1.55
3 0.1 1.65
3 0.1 1.75
3 0.1 1.85
3 0.1 1.95
3 0.1 2.05
3 0.1 2.1500001
3 0.1 2.25
3 0.1 2.3499999
3 0.1 2.45
2.9000001 0.1 0.050000001
2.9000001 0.1 0.15000001
2.9000001 0.1 0.25
2.9000001 0.1 0.34999999
2.9000001 0.1 0.44999999
2.9000001 0.1 0.55000001
2.9000001 0.1 0.64999998
2.9000001 0.1 0.75
2.9000001 0.1 0.85000002
2.9000001 0.1 0.94999999
2.9000001 0.1 1.05
2.9000001 0.1 1.15
2.9000001 0.1 1.25
2.9000001 0.1 1.35
2.9000001 0.1 1.45
2.9000001 0.1 1.55
2.9000001 0.1 1.65
2.9000001 0.1 1.75
2.9000001 0.1 1.85
2.9000001 0.1 1.95
2.9000001 0.1 2.05
2.9000001 0.1 2.1500001
2.9000001 0.1 2.25
2.9000001 0.1 2.3499999
2.9000001 0.1 2.45
3.0999999 0.2 0.050000001
3.0999999 0.2 0.15000001
3.0999999 0.2 0.25
3.0999999 0.2 0.34999999
3.0999999 0.2 0.44999999
3.0999999 0.2 0.55000001
3.0999999 0.2 0.64999998
3.0999999 0.2 0.75
3.0999999 0.2 0.85000002
3.0999999 0.2 0.94999999
3.0999999 0.2 1.05
3.0999999 0.2 1.15
3.0999999 0.2 1.25
3.0999999 0.2 1.35
3.0999999 0.2 1.45
3.0999999 0.2 1.55
3.0999999 0.2 1.65
3.0999999 0.2 1.75
3.0999999 0.2 1.85
3.0999999 0.2 1.95
3.0999999 0.2 2.05
3.0999999 0.2 2.1500001
3.0999999 0.2 2.25
3.0999999 0.2 2.3499999
3.0999999 0.2 2.45
3 0.2 0.050000001
3 0.2 0.15000001
3 0.2 0.25
3 0.2 0.34999999
3 0.2 0.44999999
3 0.2 0.55000001
3 0.2 0.64999998
3 0.2 0.75
3 0.2 0.85000002
3 0.2 0.94999999
3 0.2 1.05
3 0.2 1.15
3 0.2 1.25
3 0.2 1.35
3 0.2 1.45
3 0.2 1.55
3 0.2 1.65
3 0.2 1.75
3 0.2 1.85
3 0.2 1.95
3 0.2 2.05
3 0.2 2.1500001
3 0.2 2.25
3 0.2 2.3499999
3 0.2 2.45
2.9000001 0.2 0.050000001
2.9000001 0.2 0.15000001
2.9000001 0.2 0.25
2.9000001 0.2 0.34999999
2.9000001 0.2 0.44999999
2.9000001 0.2 0.55000001
2.9000001 0.2 0.64999998
2.9000001 0.2 0.75
2.9000001 0.2 0.85000002
2.9000001 0.2 0.94999999
2.9000001 0.2 1.05
2.9000001 0.2 1.15
2.9000001 0.2 1.25
2.9000001 0.2 1.35
2.9000001 0.2 1.45
2.9000001 0.2 1.55
2.9000001 0.2 1.65
2.9000001 0.2 1.75
2.9000001 0.2 1.85
2.9000001 0.2 1.95
2.9000001 0.2 2.05
2.9000001 0.2 2.1500001
2.9000001 0.2 2.25
2.9000001 0.2 2.3499999
2.9000001 0.2 2.45
3.0999999 0.30000001 0.050000001
3.0999999 0.30000001 0.15000001
3.0999999 0.30000001 0.25
3.0999999 0.30000001 0.34999999
3.0999999 0.30000001 0.44999999
3.0999999 0.30000001 0.55000001
3.0999999 0.30000001 0.64999998
3.0999999 0.30000001 0.75
3.0999999 0.30000001 0.85000002
3.0999999 0.30000001 0.94999999
3.0999999 0.30000001 1.05
3.0999999 0.30000001 1.15
3.0999999 0.30000001 1.25
3.0999999 0.30000001 1.35
3.0999999 0.30000001 1.45
3.0999999 0.30000001 1.55
3.0999999 0.30000001 1.65
3.0999999 0.30000001 1.75
3.0999999 0.30000001 1.85
3.0999999 0.30000001 1.95
3.0999999 0.30000001 2.05
3.0999999 0.30000001 2.1500001
3.0999999 0.30000001 2.25
3.0999999 0.30000001 2.3499999
3.0999999 0.30000001 2.45
3 0.30000001 0.050000001
3 0.30000001 0.15000001
3 0.30000001 0.25
3 0.30000001 0.34999999
3 0.30000001 0.44999999
3 0.30000001 0.55000001
3 0.30000001 0.64999998
3 0.30000001 0.75
3 0.30000001 0.85000002
3 0.30000001 0.94999999
3 0.30000001 1.05
3 0.30000001 1.15
3 0.30000001 1.25
3 0.30000001 1.35
3 0.30000001 1.45
3 0.30000001 1.55
3 0.30000001 1.65
3 0.30000001 1.75
3 0.30000001 1.85
3 0.30000001 1.95
3 0.30000001 2.05
3 0.30000001 2.1500001
3 0.30000001 2.25
3 0.30000001 2.3499999
3 0.30000001 2.45
2.9000001 0.30000001 0.050000001
2.9000001 0.30000001 0.15000001
2.9000001 0.30000001 0.25
2.9000001 0.30000001 0.34999999
2.9000001 0.30000001 0.44999999
2.9000001 0.30000001 0.55000001
2.9000001 0.30000001 0.64999998
2.9000001 0.30000001 0.75
2.9000001 0.30000001 0.85000002
2.9000001 0.30000001 0.94999999
2.9000001 0.30000001 1.05
2.9000001 0.30000001 1.15
2.9000001 0.30000001 1.25
2.9000001 0.30000001 1.35
2.9000001 0.30000001 1.45
2.9000001 0.30000001 1.55
2.9000001 0.30000001 1.65
2.9000001 0.30000001 1.75
2.9000001 0.30000001 1.85
2.9000001 0.30000001 1.95
2.9000001 0.30000001 2.05
2.9000001 0.30000001 2.1500001
2.9000001 0.30000001 2.25
2.9000001 0.30000001 2.3499999
2.9000001 0.30000001 2.45
3.0999999 0.40000001 0.050000001
3.0999999 0.40000001 0.15000001
3.0999999 0.40000001 0.25
3.0999999 0.40000001 0.34999999
3.0999999 0.40000001 0.44999999
3.0999999 0.40000001 0.55000001
3.0999999 0.40000001 0.64999998
3.0999999 0.40000001 0.75
3.0999999 0.40000001 0.85000002
3.0999999 0.40000001 0.94999999
3.0999999 0.40000001 1.05
3.0999999 0.40000001 1.15
3.0999999 0.40000001 1.25
3.0999999 0.40000001 1.35
3.0999999 0.40000001 1.45
3.0999999 0.40000001 1.55
3.0999999 0.40000001 1.65
3.0999999 0.40000001 1.75
3.0999999 0.40000001 1.85
3.0999999 0.40000001 1.95
3.0999999 0.40000001 2.05
3.0999999 0.40000001 2.1500001
3.0999999 0.40000001 2.25
3.0999999 0.40000001 2.3499999
3.0999999 0.40000001 2.45
3 0.40000001 0.050000001
3 0.40000001 0.15000001
3 0.40000001 0.25
3 0.40000001 0.34999999
3 0.40000001 0.44999999
3 0.40000001 0.55000001
3 0.40000001 0.64999998
3 0.40000001 0.75
3 0.40000001 0.85000002
3 0.40000001 0.94999999
3 0.40000001 1.05
3 0.40000001 1.15
3 0.40000001 1.25
3 0.40000001 1.35
3 0.40000001 1.45
3 0.40000001 1.55
3 0.40000001 1.65
3 0.40000001 1.75
3 0.40000001 1.85
3 0.40000001 1.95
3 0.40000001 2.05
3 0.40000001 2.1500001
3 0.40000001 2.25
3 0.40000001 2.3499999
3 0.40000001 2.45
2.9000001 0.40000001 0.050000001
2.9000001 0.40000001 0.15000001
2.9000001 0.40000001 0.25
2.9000001 0.40000001 0.34999999
2.9000001 0.40000001 0.44999999
2.9000001 0.40000001 0.55000001
2.9000001 0.40000001 0.64999998
2.9000001 0.40000001 0.75
2.9000001 0.40000001 0.85000002
2.9000001 0.40000001 0.94999999
2.9000001 0.40000001 1.05
2.9000001 0.40000001 1.15
2.9000001 0.40000001 1.25
2.9000001 0.40000001 1.35
2.9000001 0.40000001 1.45
2.9000001 0.40000001 1.55
2.9000001 0.40000001 1.65
2.9000001 0.40000001 1.75
2.9000001 0.40000001 1.85
2.9000001 0.40000001 1.95
2.9000001 0.40000001 2.05
2.9000001 0.40000001 2.1500001
2.9000001 0.40000001 2.25
2.9000001 0.40000001 2.3499999
2.9000001 0.40000001 2.45
3.0999999 0.5 0.050000001
3.0999999 0.5 0.15000001
3.0999999 0.5 0.25
3.0999999 0.5 0.34999999
3.0999999 0.5 0.44999999
3.0999999 0.5 0.55000001
3.0999999 0.5 0.64999998
3.0999999 0.5 0.75
3.0999999 0.5 0.85000002
3.0999999 0.5 0.94999999
3.0999999 0.5 1.05
3.0999999 0.5 1.15
3.0999999 0.5 1.25
3.0999999 0.5 1.35
3.0999999 0.5 1.45
3.0999999 0.5 1.55
3.0999999 0.5 1.65
3.0999999 0.5 1.75
3.0999999 0.5 1.85
3.0999999 0.5 1.95
3.0999999 0.5 2.05
3.0999999 0.5 2.1500001
3.0999999 0.5 2.25
3.0999999 0.5 2.3499999
3.0999999 0.5 2.45
3 0.5 0.050000001
3 0.5 0.15000001
3 0.5 0.25
3 0.5 0.34999999
3 0.5 0.44999999
3 0.5 0.55000001
3 0.5 0.64999998
3 0.5 0.75
3 0.5 0.85000002
3 0.5 0.94999999
3 0.5 1.05
3 0.5 1.15
3 0.5 1.25
3 0.5 1.35
3 0.5 1.45
3 0.5 1.55
3 0.5 1.65
3 0.5 1.75
3 0.5 1.85
3 0.5 1.95
3 0.5 2.05
3 0.5 2.1500001
3 0.5 2.25
3 0.5 2.3499999
3 0.5 2.45
2.9000001 0.5 0.050000001
2.9000001 0.5 0.15000001
2.9000001 0.5 0.25
2.9000001 0.5 0.34999999
2.9000001 0.5 0.44999999
2.9000001 0.5 0.55000001
2.9000001 0.5 0.64999998
2.9000001 0.5 0.75
2.9000001 0.5 0.85000002
2.9000001 0.5 0.94999999
2.9000001 0.5 1.05
2.9000001 0.5 1.15
2.9000001 0.5 1.25
2.9000001 0.5 1.35
2.9000001 0.5 1.45
2.9000001 0.5 1.55
2.9000001 0.5 1.65
2.9000001 0.5 1.75
2.9000001 0.5 1.85
2.9000001 0.5 1.95
2.9000001 0.5 2.05
2.9000001 0.5 2.1500001
2.9000001 0.5 2.25
2.9000001 0.5 2.3499999
2.9000001 0.5 2.45
3.0999999 0.60000002 0.050000001
3.0999999 0.60000002 0.15000001
3.0999999 0.60000002 0.25
3.0999999 0.60000002 0.34999999
3.0999999 0.60000002 0.44999999
3.0999999 0.60000002 0.55000001
3.0999999 0.60000002 0.64999998
3.0999999 0.60000002 0.75
3.0999999 0.60000002 0.85000002
3.0999999 0.60000002 0.94999999
3.0999999 0.60000002 1.05
3.0999999 0.60000002 1.15
3.0999999 0.60000002 1.25
3.0999999 0.60000002 1.35
3.0999999 0.60000002 1.45
3.0999999 0.60000002 1.55
3.0999999 0.60000002 1.65
3.0999999 0.60000002 1.75
3.0999999 0.60000002 1.85
3.0999999 0.60000002 1.95
3.0999999 0.60000002 2.05
3.0999999 0.60000002 2.1500001
3.0999999 0.60000002 2.25
3.0999999 0.60000002 2.3499999
3.0999999 0.60000002 2.45
3 0.60000002 0.050000001
3 0.60000002 0.15000001
3 0.60000002 0.25
3 0.60000002 0.34999999
3 0.60000002 0.44999999
3 0.60000002 0.55000001
3 0.60000002 0.64999998
3 0.60000002 0.75
3 0.60000002 0.85000002
3 0.60000002 0.94999999
3 0.60000002 1.05
3 0.60000002 1.15
3 0.60000002 1.25
3 0.60000002 1.35
3 0.60000002 1.45
3 0.60000002 1.55
3 0.60000002 1.65
3 0.60000002 1.75
3 0.60000002 1.85
3 0.60000002 1.95
3 0.60000002 2.05
3 0.60000002 2.1500001
3 0.60000002 2.25
3 0.60000002 2.3499999
3 0.60000002 2.45
2.9000001 0.60000002 0.050000001
2.9000001 0.60000002 0.15000001
2.9000001 0.60000002 0.25
2.9000001 0.60000002 0.34999999
2.9000001 0.60000002 0.44999999
2.9000001 0.60000002 0.55000001
2.9000001 0.60000002 0.64999998
2.9000001 0.60000002 0.75
2.9000001 0.60000002 0.85000002
2.9000001 0.60000002 0.94999999
2.9000001 0.60000002 1.05
2.9000001 0.60000002 1.15
2.9000001 0.60000002 1.25
2.9000001 0.60000002 1.35
2.9000001 0.60000002 1.45
2.9000001 0.60000002 1.55
2.9000001 0.60000002 1.65
2.9000001 0.60000002 1.75
2.9000001 0.60000002 1.85
2.9000001 0.60000002 1.95
2.9000001 0.60000002 2.05
2.9000001 0.60000002 2.1500001
2.9000001 0.60000002 2.25
2.9000001 0.60000002 2.3499999
2.9000001 0.60000002 2.45
3.0999999 0.69999999 0.050000001
3.0999999 0.69999999 0.15000001
3.0999999 0.69999999 0.25
3.0999999 0.69999999 0.34999999
3.0999999 0.69999999 0.44999999
3.0999999 0.69999999 0.55000001
3.0999999 0.69999999 0.64999998
3.0999999 0.69999999 0.75
3.0999999 0.69999999 0.85000002
3.0999999 0.69999999 0.94999999
3.0999999 0.69999999 1.05
3.0999999 0.69999999 1.15
3.0999999 0.69999999 1.25
3.0999999 0.69999999 1.35
3.0999999 0.69999999 1.45
3.0999999 0.69999999 1.55
3.0999999 0.69999999 1.65
3.0999999 0.69999999 1.75
3.0999999 0.69999999 1.85
3.0999999 0.69999999 1.95
3.0999999 0.69999999 2.05
3.0999999 0.69999999 2.1500001
3.0999999 0.69999999 2.25
3.0999999 0.69999999 2.3499999
3.0999999 0.69999999 2.45
3 0.69999999 0.050000001
3 0.69999999 0.15000001
3 0.69999999 0.25
3 0.69999999 0.34999999
3 0.69999999 0.44999999
3 0.69999999 0.55000001
3 0.69999999 0.64999998
3 0.69999999 0.75
3 0.69999999 0.85000002
3 0.69999999 0.94999999
3 0.69999999 1.05
3 0.69999999 1.15
3 0.69999999 1.25
3 0.69999999 1.35
3 0.69999999 1.45
3 0.69999999 1.55
3 0.69999999 1.65
3 0.69999999 1.75
3 0.69999999 1.85
3 0.69999999 1.95
3 0.69999999 2.05
3 0.69999999 2.1500001
3 0.69999999 2.25
3 0.69999999 2.3499999
3 0.69999999 2.45
2.9000001 0.69999999 0.050000001
2.9000001 0.69999999 0.15000001
2.9000001 0.69999999 0.25
2.9000001 0.69999999 0.34999999
2.9000001 0.69999999 0.44999999
2.9000001 0.69999999 0.55000001
2.9000001 0.69999999 0.64999998
2.9000001 0.69999999 0.75
2.9000001 0.69999999 0.85000002
2.9000001 0.69999999 0.94999999
2.9000001 0.69999999 1.05
2.9000001 0.69999999 1.15
2.9000001 0.69999999 1.25
2.9000001 0.69999999 1.35
2.9000001 0.69999999 1.45
2.9000001 0.69999999 1.55
2.9000001 0.69999999 1.65
2.9000001 0.69999999 1.75
2.9000001 0.69999999 1.85
2.9000001 0.69999999 1.95
2.9000001 0.69999999 2.05
2.9000001 0.69999999 2.1500001
2.9000001 0.69999999 2.25
2.9000001 0.69999999 2.3499999
2.9000001 0.69999999 2.45
3.0999999 0.80000001 0.050000001
3.0999999 0.80000001 0.15000001
3.0999999 0.80000001 0.25
3.0999999 0.80000001 0.34999999
3.0999999 0.80000001 0.44999999
3.0999999 0.80000001 0.55000001
3.0999999 0.80000001 0.64999998
3.0999999 0.80000001 0.75
3.0999999 0.80000001 0.85000002
3.0999999 0.80000001 0.94999999
3.0999999 0.80000001 1.05
3.0999999 0.80000001 1.15
3.0999999 0.80000001 1.25
3.0999999 0.80000001 1.35
3.0999999 0.80000001 1.45
3.0999999 0.80000001 1.55
3.0999999 0.80000001 1.65
3.0999999 0.80000001 1.75
3.0999999 0.80000001 1.85
3.0999999 0.80000001 1.95
3.0999999 0.80000001 2.05
3.0999999 0.80000001 2.1500001
3.0999999 0.80000001 2.25
3.0999999 0.80000001 2.3499999
3.0999999 0.80000001 2.45
3 0.80000001 0.050000001
3 0.80000001 0.15000001
3 0.80000001 0.25
3 0.80000001 0.34999999
3 0.80000001 0.44999999
3 0.80000001 0.55000001
3 0.80000001 0.64999998
3 0.80000001 0.75
3 0.80000001 0.85000002
3 0.80000001 0.94999999
3 0.80000001 1.05
3 0.80000001 1.15
3 0.80000001 1.25
3 0.80000001 1.35
3 0.80000001 1.45
3 0.80000001 1.55
3 0.80000001 1.65
3 0.80000001 1.75
3 0.80000001 1.85
3 0.80000001 1.95
3 0.80000001 2.05
3 0.80000001 2.1500001
3 0.80000001 2.25
3 0.80000001 2.3499999
3 0.80000001 2.45
2.9000001 0.80000001 0.050000001
2.9000001 0.80000001 0.15000001
2.9000001 0.80000001 0.25
2.9000001 0.80000001 0.34999999
2.9000001 0.80000001 0.44999999
2.9000001 0.80000001 0.55000001
2.9000001 0.80000001 0.64999998
2.9000001 0.80000001 0.75
2.9000001 0.80000001 0.85000002
2.9000001 0.80000001 0.94999999
2.9000001 0.80000001 1.05
2.9000001 0.80000001 1.15
2.9000001 0.80000001 1.25
2.9000001 0.80000001 1.35
2.9000001 0.80000001 1.45
2.9000001 0.80000001 1.55
2.9000001 0.80000001 1.65
2.9000001 0.80000001 1.75
2.9000001 0.80000001 1.85
2.9000001 0.80000001 1.95
2.9000001 0.80000001 2.05
2.9000001 0.80000001 2.1500001
2.9000001 0.80000001 2.25
2.9000001 0.80000001 2.3499999
2.9000001 0.80000001 2.45
3.0999999 0.89999998 0.050000001
3.0999999 0.89999998 0.15000001
3.0999999 0.89999998 0.25
3.0999999 0.89999998 0.34999999
3.0999999 0.89999998 0.44999999
3.0999999 0.89999998 0.55000001
3.0999999 0.89999998 0.64999998
3.0999999 0.89999998 0.75
3.0999999 0.89999998 0.85000002
3.0999999 0.89999998 0.94999999
3.0999999 0.89999998 1.05
3.0999999 0.89999998 1.15
3.0999999 0.89999998 1.25
3.0999999 0.89999998 1.35
3.0999999 0.89999998 1.45
3.0999999 0.89999998 1.55
3.0999999 0.89999998 1.65
3.0999999 0.89999998 1.75
3.0999999 0.89999998 1.85
3.0999999 0.89999998 1.95
3.0999999 0.89999998 2.05
3.0999999 0.89999998 2.1500001
3.0999999 0.89999998 2.25
3.0999999 0.89999998 2.3499999
3.0999999 0.89999998 2.45
3 0.89999998 0.050000001
3 0.89999998 0.15000001
3 0.89999998 0.25
3 0.89999998 0.34999999
3 0.89999998 0.44999999
3 0.89999998 0.55000001
3 0.89999998 0.64999998
3 0.89999998 0.75
3 0.89999998 0.85000002
3 0.89999998 0.94999999
3 0.89999998 1.05
3 0.89999998 1.15
3 0.89999998 1.25
3 0.89999998 1.35
3 0.89999998 1.45
3 0.89999998 1.55
3 0.89999998 1.65
3 0.89999998 1.75
3 0.89999998 1.85
3 0.89999998 1.95
3 0.89999998 2.05
3 0.89999998 2.1500001
3 0.89999998 2.25
3 0.89999998 2.3499999
3 0.89999998 2.45
2.9000001 0.89999998 0.050000001
2.9000001 0.89999998 0.15000001
2.9000001 0.89999998 0.25
2.9000001 0.89999998 0.34999999
2.9000001 0.89999998 0.44999999
2.9000001 0.89999998 0.55000001
2.9000001 0.89999998 0.64999998
2.9000001 0.89999998 0.75
2.9000001 0.89999998 0.85000002
2.9000001 0.89999998 0.94999999
2.9000001 0.89999998 1.05
2.9000001 0.89999998 1.15
2.9000001 0.89999998 1.25
2.9000001 0.89999998 1.35
2.9000001 0.89999998 1.45
2.9000001 0.89999998 1.55
2.9000001 0.89999998 1.65
2.9000001 0.89999998 1.75
2.9000001 0.89999998 1.85
2.9000001 0.89999998 1.95
2.9000001 0.89999998 2.05
2.9000001 0.89999998 2.1500001
2.9000001 0.89999998 2.25
2.9000001 0.89999998 2.3499999
2.9000001 0.89999998 2.45
3.0999999 1 0.050000001
3.0999999 1 0.15000001
3.0999999 1 0.25
3.0999999 1 0.34999999
3.0999999 1 0.44999999
3.0999999 1 0.55000001
3.0999999 1 0.64999998
3.0999999 1 0.75
3.0999999 1 0.85000002
3.0999999 1 0.94999999
3.0999999 1 1.05
3.0999999 1 1.15
3.0999999 1 1.25
3.0999999 1 1.35
3.0999999 1 1.45
3.0999999 1 1.55
3.0999999 1 1.65
3.0999999 1 1.75
3.0999999 1 1.85
3.0999999 1 1.95
3.0999999 1 2.05
3.0999999 1 2.1500001
3.0999999 1 2.25
3.0999999 1 2.3499999
3.0999999 1 2.45
3 1 0.050000001
3 1 0.15000001
3 1 0.25
3 1 0.34999999
3 1 0.44999999
3 1 0.55000001
3 1 0.64999998
3 1 0.75
3 1 0.85000002
3 1 0.94999999
3 1 1.05
3 1 1.15
3 1 1.25
3 1 1.35
3 1 1.45
3 1 1.55
3 1 1.65
3 1 1.75
3 1 1.85
3 1 1.95
3 1 2.05
3 1 2.1500001
3 1 2.25
3 1 2.3499999
3 1 2.45
2.9000001 1 0.050000001
2.9000001 1 0.15000001
2.9000001 1 0.25
2.9000001 1 0.34999999
2.9000001 1 0.44999999
2.9000001 1 0.55000001
2.9000001 1 0.64999998
2.9000001 1 0.75
2.9000001 1 0.85000002
2.9000001 1 0.94999999
2.9000001 1 1.05
2.9000001 1 1.15
2.9000001 1 1.25
2.9000001 1 1.35
2.9000001 1 1.45
2.9000001 1 1.55
2.9000001 1 1.65
2.9000001 1 1.75
2.9000001 1 1.85
2.9000001 1 1.95
2.9000001 1 2.05
2.9000001 1 2.1500001
2.9000001 1 2.25
2.9000001 1 2.3499999
2.9000001 1 2.45
3.0999999 1.1 0.050000001
3.0999999 1.1 0.15000001
3.0999999 1.1 0.25
3.0999999 1.1 0.34999999
3.0999999 1.1 0.44999999
3.0999999 1.1 0.55000001
3.0999999 1.1 0.64999998
3.0999999 1.1 0.75
3.0999999 1.1 0.85000002
3.0999999 1.1 0.94999999
3.0999999 1.1 1.05
3.0999999 1.1 1.15
3.0999999 1.1 1.25
3.0999999 1.1 1.35
3.0999999 1.1 1.45
3.0999999 1.1 1.55
3.0999999 1.1 1.65
3.0999999 1.1 1.75
3.0999999 1.1 1.85
3.0999999 1.1 1.95
3.0999999 1.1 2.05
3.0999999 1.1 2.1500001
3.0999999 1.1 2.25
3.0999999 1.1 2.3499999
3.0999999 1.1 2.45
3 1.1 0.050000001
3 1.1 0.15000001
3 1.1 0.25
3 1.1 0.34999999
3 1.1 0.44999999
3 1.1 0.55000001
3 1.1 0.64999998
3 1.1 0.75
3 1.1 0.85000002
3 1.1 0.94999999
3 1.1 1.05
3 1.1 1.15
3 1.1 1.25
3 1.1 1.35
3 1.1 1.45
3 1.1 1.55
3 1.1 1.65
3 1.1 1.75
3 1.1 1.85
3 1.1 1.95
3 1.1 2.05
3 1.1 2.1500001
3 1.1 2.25
3 1.1 2.3499999
3 1.1 2.45
2.9000001 1.1 0.050000001
2.9000001 1.1 0.15000001
2.9000001 1.1 0.25
2.9000001 1.1 0.34999999
2.9000001 1.1 0.44999999
2.9000001 1.1 0.55000001
2.9000001 1.1 0.64999998
2.9000001 1.1 0.75
2.9000001 1.1 0.85000002
2.9000001 1.1 0.94999999
2.9000001 1.1 1.05
2.9000001 1.1 1.15
2.9000001 1.1 1.25
2.9000001 1.1 1.35
2.9000001 1.1 1.45
2.9000001 1.1 1.55
2.9000001 1.1 1.65
2.9000001 1.1 1.75
2.9000001 1.1 1.85
2.9000001 1.1 1.95
2.9000001 1.1 2.05
2.9000001 1.1 2.1500001
2.9000001 1.1 2.25
2.9000001 1.1 2.3499999
2.9000001 1.1 2.45
3.0999999 1.2 0.050000001
3.0999999 1.2 0.15000001
3.0999999 1.2 0.25
3.0999999 1.2 0.34999999
3.0999999 1.2 0.44999999
3.0999999 1.2 0.55000001
3.0999999 1.2 0.64999998
3.0999999 1.2 0.75
3.0999999 1.2 0.85000002
3.0999999 1.2 0.94999999
3.0999999 1.2 1.05
3.0999999 1.2 1.15
3.0999999 1.2 1.25
3.0999999 1.2 1.35
3.0999999 1.2 1.45
3.0999999 1.2 1.55
3.0999999 1.2 1.65
3.0999999 1.2 1.75
3.0999999 1.2 1.85
3.0999999 1.2 1.95
3.0999999 1.2 2.05
3.0999999 1.2 2.1500001
3.0999999 1.2 2.25
3.0999999 1.2 2.3499999
3.0999999 1.2 2.45
3 1.2 0.050000001
3 1.2 0.15000001
3 1.2 0.25
3 1.2 0.34999999
3 1.2 0.44999999
3 1.2 0.55000001
3 1.2 0.64999998
3 1.2 0.75
3 1.2 0.85000002
3 1.2 0.94999999
3 1.2 1.05
3 1.2 1.15
3 1.2 1.25
3 1.2 1.35
3 1.2 1.45
3 1.2 1.55
3 1.2 1.65
3 1.2 1.75
3 1.2 1.85
3 1.2 1.95
3 1.2 2.05
3 1.2 2.1500001
3 1.2 2.25
3 1.2 2.3499999
3 1.2 2.45
2.9000001 1.2 0.050000001
2.9000001 1.2 0.15000001
2.9000001 1.2 0.25
2.9000001 1.2 0.34999999
2.9000001 1.2 0.44999999
2.9000001 1.2 0.55000001
2.9000001 1.2 0.64999998
2.9000001 1.2 0.75
2.9000001 1.2 0.85000002
2.9000001 1.2 0.94999999
2.9000001 1.2 1.05
2.9000001 1.2 1.15
2.9000001 1.2 1.25
2.9000001 1.2 1.35
2.9000001 1.2 1.45
2.9000001 1.2 1.55
2.9000001 1.2 1.65
2.9000001 1.2 1.75
2.9000001 1.2 1.85
2.9000001 1.2 1.95
2.9000001 1.2 2.05
2.9000001 1.2 2.1500001
2.9000001 1.2 2.25
2.9000001 1.2 2.3499999
2.9000001 1.2 2.45
3.0999999 1.3 0.050000001
3.0999999 1.3 0.15000001
3.0999999 1.3 0.25
3.0999999 1.3 0.34999999
3.0999999 1.3 0.44999999
3.0999999 1.3 0.55000001
3.0999999 1.3 0.64999998
3.0999999 1.3 0.75
3.0999999 1.3 0.85000002
3.0999999 1.3 0.94999999
3.0999999 1.3 1.05
3.0999999 1.3 1.15
3.0999999 1.3 1.25
3.0999999 1.3 1.35
3.0999999 1.3 1.45
3.0999999 1.3 1.55
3.0999999 1.3 1.65
3.0999999 1.3 1.75
3.0999999 1.3 1.85
3.0999999 1.3 1.95
3.0999999 1.3 2.05
3.0999999 1.3 2.1500001
3.0999999 1.3 2.25
3.0999999 1.3 2.3499999
3.0999999 1.3 2.45
3 1.3 0.050000001
3 1.3 0.15000001
3 1.3 0.25
3 1.3 0.34999999
3 1.3 0.44999999
3 1.3 0.55000001
3 1.3 0.64999998
3 1.3 0.75
3 1.3 0.85000002
3 1.3 0.94999999
3 1.3 1.05
3 1.3 1.15
3 1.3 1.25
3 1.3 1.35
3 1.3 1.45
3 1.3 1.55
3 1.3 1.65
3 1.3 1.75
3 1.3 1.85
3 1.3 1.95
3 1.3 2.05
3 1.3 2.1500001
3 1.3 2.25
3 1.3 2.3499999
3 1.3 2.45
2.9000001 1.3 0.050000001
2.9000001 1.3 0.15000001
2.9000001 1.3 0.25
2.9000001 1.3 0.34999999
2.9000001 1.3 0.44999999
2.9000001 1.3 0.55000001
2.9000001 1.3 0.64999998
2.9000001 1.3 0.75
2.9000001 1.3 0.85000002
2.9000001 1.3 0.94999999
2.9000001 1.3 1.05
2.9000001 1.3 1.15
2.9000001 1.3 1.25
2.9000001 1.3 1.35
2.9000001 1.3 1.45
2.9000001 1.3 1.55
2.9000001 1.3 1.65
2.9000001 1.3 1.75
2.9000001 1.3 1.85
2.9000001 1.3 1.95
2.9000001 1.3 2.05
2.9000001 1.3 2.1500001
2.9000001 1.3 2.25
2.9000001 1.3 2.3499999
2.9000001 1.3 2.45
3.0999999 1.4 0.050000001
3.0999999 1.4 0.15000001
3.0999999 1.4 0.25
3.0999999 1.4 0.34999999
3.0999999 1.4 0.44999999
3.0999999 1.4 0.55000001
3.0999999 1.4 0.64999998
3.0999999 1.4 0.75
3.0999999 1.4 0.85000002
3.0999999 1.4 0.94999999
3.0999999 1.4 1.05
3.0999999 1.4 1.15
3.0999999 1.4 1.25
3.0999999 1.4 1.35
3.0999999 1.4 1.45
3.0999999 1.4 1.55
3.0999999 1.4 1.65
3.0999999 1.4 1.75
3.0999999 1.4 1.85
3.0999999 1.4 1.95
3.0999999 1.4 2.05
3.0999999 1.4 2.1500001
3.0999999 1.4 2.25
3.0999999 1.4 2.3499999
3.0999999 1.4 2.45
3 1.4 0.050000001
3 1.4 0.15000001
3 1.4 0.25
3 1.4 0.34999999
3 1.4 0.44999999
3 1.4 0.55000001
3 1.4 0.64999998
3 1.4 0.75
3 1.4 0.85000002
3 1.4 0.94999999
3 1.4 1.05
3 1.4 1.15
3 1.4 1.25
3 1.4 1.35
3 1.4 1.45
3 1.4 1.55
3 1.4 1.65
3 1.4 1.75
3 1.4 1.85
3 1.4 1.95
3 1.4 2.05
3 1.4 2.1500001
3 1.4 2.25
3 1.4 2.3499999
3 1.4 2.45
2.9000001 1.4 0.050000001
2.9000001 1.4 0.15000001
2.9000001 1.4 0.25
2.9000001 1.4 0.34999999
2.9000001 1.4 0.44999999
2.9000001 1.4 0.55000001
2.9000001 1.4 0.64999998
2.9000001 1.4 0.75
2.9000001 1.4 0.85000002
2.9000001 1.4 0.94999999
2.9000001 1.4 1.05
2.9000001 1.4 1.15
2.9000001 1.4 1.25
2.9000001 1.4 1.35
2.9000001 1.4 1.45
2.9000001 1.4 1.55
2.9000001 1.4 1.65
2.9000001 1.4 1.75
2.9000001 1.4 1.85
2.9000001 1.4 1.95
2.9000001 1.4 2.05
2.9000001 1.4 2.1500001
2.9000001 1.4 2.25
2.9000001 1.4 2.3499999
2.9000001 1.4 2.45
3.0999999 1.5 0.050000001
3.0999999 1.5 0.15000001
3.0999999 1.5 0.25
3.0999999 1.5 0.34999999
3.0999999 1.5 0.44999999
3.0999999 1.5 0.55000001
3.0999999 1.5 0.64999998
3.0999999 1.5 0.75
3.0999999 1.5 0.85000002
3.0999999 1.5 0.94999999
3.0999999 1.5 1.05
3.0999999 1.5 1.15
3.0999999 1.5 1.25
3.0999999 1.5 1.35
3.0999999 1.5 1.45
3.0999999 1.5 1.55
3.0999999 1.5 1.65
3.0999999 1.5 1.75
3.0999999 1.5 1.85
3.0999999 1.5 1.95
3.0999999 1.5 2.05
3.0999999 1.5 2.1500001
3.0999999 1.5 2.25
3.0999999 1.5 2.3499999
3.0999999 1.5 2.45
3 1.5 0.050000001
3 1.5 0.15000001
3 1.5 0.25
3 1.5 0.34999999
3 1.5 0.44999999
3 1.5 0.55000001
3 1.5 0.64999998
3 1.5 0.75
3 1.5 0.85000002
3 1.5 0.94999999
3 1.5 1.05
3 1.5 1.15
3 1.5 1.25
3 1.5 1.35
3 1.5 1.45
3 1.5 1.55
3 1.5 1.65
3 1.5 1.75
3 1.5 1.85
3 1.5 1.95
3 1.5 2.05
3 1.5 2.1500001
3 1.5 2.25
3 1.5 2.3499999
3 1.5 2.45
2.9000001 1.5 0.050000001
2.9000001 1.5 0.15000001
2.9000001 1.5 0.25
2.9000001 1.5 0.34999999
2.9000001 1.5 0.44999999
2.9000001 1.5 0.55000001
2.9000001 1.5 0.64999998
2.9000001 1.5 0.75
2.9000001 1.5 0.85000002
2.9000001 1.5 0.94999999
2.9000001 1.5 1.05
2.9000001 1.5 1.15
2.9000001 1.5 1.25
2.9000001 1.5 1.35
2.9000001 1.5 1.45
2.9000001 1.5 1.55
2.9000001 1.5 1.65
2.9000001 1.5 1.75
2.9000001 1.5 1.85
2.9000001 1.5 1.95
2.9000001 1.5 2.05
2.9000001 1.5 2.1500001
2.9000001 1.5 2.25
2.9000001 1.5 2.3499999
2.9000001 1.5 2.45
3.0999999 1.6 0.050000001
3.0999999 1.6 0.15000001
3.0999999 1.6 0.25
3.0999999 1.6 0.34999999
3.0999999 1.6 0.44999999
3.0999999 1.6 0.55000001
3.0999999 1.6 0.64999998
3.0999999 1.6 0.75
3.0999999 1.6 0.85000002
3.0999999 1.6 0.94999999
3.0999999 1.6 1.05
3.0999999 1.6 1.15
3.0999999 1.6 1.25
3.0999999 1.6 1.35
3.0999999 1.6 1.45
3.0999999 1.6 1.55
3.0999999 1.6 1.65
3.0999999 1.6 1.75
3.0999999 1.6 1.85
3.0999999 1.6 1.95
3.0999999 1.6 2.05
3.0999999 1.6 2.1500001
3.0999999 1.6 2.25
3.0999999 1.6 2.3499999
3.0999999 1.6 2.45
3 1.6 0.050000001
3 1.6 0.15000001
3 1.6 0.25
3 1.6 0.34999999
3 1.6 0.44999999
3 1.6 0.55000001
3 1.6 0.64999998
3 1.6 0.75
3 1.6 0.85000002
3 1.6 0.94999999
3 1.6 1.05
3 1.6 1.15
3 1.6 1.25
3 1.6 1.35
3 1.6 1.45
3 1.6 1.55
3 1.6 1.65
3 1.6 1.75
3 1.6 1.85
3 1.6 1.95
3 1.6 2.05
3 1.6 2.1500001
3 1.6 2.25
3 1.6 2.3499999
3 1.6 2.45
2.9000001 1.6 0.050000001
2.9000001 1.6 0.15000001
2.9000001 1.6 0.25
2.9000001 1.6 0.34999999
2.9000001 1.6 0.44999999
2.9000001 1.6 0.55000001
2.9000001 1.6 0.64999998
2.9000001 1.6 0.75
2.9000001 1.6 0.85000002
2.9000001 1.6 0.94999999
2.9000001 1.6 1.05
2.9000001 1.6 1.15
2.9000001 1.6 1.25
2.9000001 1.6 1.35
2.9000001 1.6 1.45
2.9000001 1.6 1.55
2.9000001 1.6 1.65
2.9000001 1.6 1.75
2.9000001 1.6 1.85
2.9000001 1.6 1.95
2.9000001 1.6 2.05
2.9000001 1.6 2.1500001
2.9000001 1.6 2.25
2.9000001 1.6 2.3499999
2.9000001 1.6 2.45
3.9000001 0.2 0.050000001
3.9000001 0.2 0.15000001
3.9000001 0.2 0.25
3.9000001 0.2 0.34999999
3.9000001 0.2 0.44999999
3.9000001 0.2 0.55000001
3.9000001 0.2 0.64999998
3.9000001 0.2 0.75
3.9000001 0.2 0.85000002
3.9000001 0.2 0.94999999
3.9000001 0.2 1.05
3.9000001 0.2 1.15
3.9000001 0.2 1.25
3.9000001 0.2 1.35
3.9000001 0.2 1.45
3.9000001 0.2 1.55
3.9000001 0.2 1.65
3.9000001 0.2 1.75
3.9000001 0.2 1.85
3.9000001 0.2 1.95
3.9000001 0.2 2.05
3.9000001 0.2 2.1500001
3.9000001 0.2 2.25
3.9000001 0.2 2.3499999
3.9000001 0.2 2.45
4 0.2 0.050000001
4 0.2 0.15000001
4 0.2 0.25
4 0.2 0.34999999
4 0.2 0.44999999
4 0.2 0.55000001
4 0.2 0.64999998
4 0.2 0.75
4 0.2 0.85000002
4 0.2 0.94999999
4 0.2 1.05
4 0.2 1.15
4 0.2 1.25
4 0.2 1.35
4 0.2 1.45
4 0.2 1.55
4 0.2 1.65
4 0.2 1.75
4 0.2 1.85
4 0.2 1.95
4 0.2 2.05
4 0.2 2.1500001
4 0.2 2.25
4 0.2 2.3499999
4 0.2 2.45
4.0999999 0.2 0.050000001
4.0999999 0.2 0.15000001
4.0999999 0.2 0.25
4.0999999 0.2 0.34999999
4.0999999 0.2 0.44999999
4.0999999 0.2 0.55000001
4.0999999 0.2 0.64999998
4.0999999 0.2 0.75
4.0999999 0.2 0.85000002
4.0999999 0.2 0.94999999
4.0999999 0.2 1.05
4.0999999 0.2 1.15
4.0999999 0.2 1.25
4.0999999 0.2 1.35
4.0999999 0.2 1.45
4.0999999 0.2 1.55
4.0999999 0.2 1.65
4.0999999 0.2 1.75
4.0999999 0.2 1.85
4.0999999 0.2 1.95
4.0999999 0.2 2.05
4.0999999 0.2 2.1500001
4.0999999 0.2 2.25
4.0999999 0.2 2.3499999
4.0999999 0.2 2.45
3.9000001 0.1 0.050000001
3.9000001 0.1 0.15000001
3.9000001 0.1 0.25
3.9000001 0.1 0.34999999
3.9000001 0.1 0.44999999
3.9000001 0.1 0.55000001
3.9000001 0.1 0.64999998
3.9000001 0.1 0.75
3.9000001 0.1 0.85000002
3.9000001 0.1 0.94999999
3.9000001 0.1 1.05
3.9000001 0.1 1.15
3.9000001 0.1 1.25
3.9000001 0.1 1.35
3.9000001 0.1 1.45
3.9000001 0.1 1.55
3.9000001 0.1 1.65
3.9000001 0.1 1.75
3.9000001 0.1 1.85
3.9000001 0.1 1.95
3.9000001 0.1 2.05
3.9000001 0.1 2.1500001
3.9000001 0.1 2.25
3.9000001 0.1 2.3499999
3.9000001 0.1 2.45
4 0.1 0.050000001
4 0.1 0.15000001
4 0.1 0.25
4 0.1 0.34999999
4 0.1 0.44999999
4 0.1 0.55000001
4 0.1 0.64999998
4 0.1 0.75
4 0.1 0.85000002
4 0.1 0.94999999
4 0.1 1.05
4 0.1 1.15
4 0.1 1.25
4 0.1 1.35
4 0.1 1.45
4 0.1 1.55
4 0.1 1.65
4 0.1 1.75
4 0.1 1.85
4 0.1 1.95
4 0.1 2.05
4 0.1 2.1500001
4 0.1 2.25
4 0.1 2.3499999
4 0.1 2.45
4.0999999 0.1 0.050000001
4.0999999 0.1 0.15000001
4.0999999 0.1 0.25
4.0999999 0.1 0.34999999
4.0999999 0.1 0.44999999
4.0999999 0.1 0.55000001
4.0999999 0.1 0.64999998
4.0999999 0.1 0.75
4.0999999 0.1 0.85000002
4.0999999 0.1 0.94999999
4.0999999 0.1 1.05
4.0999999 0.1 1.15
4.0999999 0.1 1.25
4.0999999 0.1 1.35
4.0999999 0.1 1.45
4.0999999 0.1 1.55
4.0999999 0.1 1.65
4.0999999 0.1 1.75
4.0999999 0.1 1.85
4.0999999 0.1 1.95
4.0999999 0.1 2.05
4.0999999 0.1 2.1500001
4.0999999 0.1 2.25
4.0999999 0.1 2.3499999
4.0999999 0.1 2.45
3.9000001 0 0.050000001
3.9000001 0 0.15000001
3.9000001 0 0.25
3.9000001 0 0.34999999
3.9000001 0 0.44999999
3.9000001 0 0.55000001
3.9000001 0 0.64999998
3.9000001 0 0.75
3.9000001 0 0.85000002
3.9000001 0 0.94999999
3.9000001 0 1.05
3.9000001 0 1.15
3.9000001 0 1.25
3.9000001 0 1.35
3.9000001 0 1.45
3.9000001 0 1.55
3.9000001 0 1.65
3.9000001 0 1.75
3.9000001 0 1.85
3.9000001 0 1.95
3.9000001 0 2.05
3.9000001 0 2.1500001
3.9000001 0 2.25
3.9000001 0 2.3499999
3.9000001 0 2.45
4 0 0.050000001
4 0 0.15000001
4 0 0.25
4 0 0.34999999
4 0 0.44999999
4 0 0.55000001
4 0 0.64999998
4 0 0.75
4 0 0.85000002
4 0 0.94999999
4 0 1.05
4 0 1.15
4 0 1.25
4 0 1.35
4 0 1.45
4 0 1.55
4 0 1.65
4 0 1.75
4 0 1.85
4 0 1.95
4 0 2.05
4 0 2.1500001
4 0 2.25
4 0 2.3499999
4 0 2.45
4.0999999 0 0.050000001
4.0999999 0 0.15000001
4.0999999 0 0.25
4.0999999 0 0.34999999
4.0999999 0 0.44999999
4.0999999 0 0.55000001
4.0999999 0 0.64999998
4.0999999 0 0.75
4.0999999 0 0.85000002
4.0999999 0 0.94999999
4.0999999 0 1.05
4.0999999 0 1.15
4.0999999 0 1.25
4.0999999 0 1.35
4.0999999 0 1.45
4.0999999 0 1.55
4.0999999 0 1.65
4.0999999 0 1.75
4.0999999 0 1.85
4.0999999 0 1.95
4.0999999 0 2.05
4.0999999 0 2.1500001
4.0999999 0 2.25
4.0999999 0 2.3499999
4.0999999 0 2.45
3.9000001 -0.1 0.050000001
3.9000001 -0.1 0.15000001
3.9000001 -0.1 0.25
3.9000001 -0.1 0.34999999
3.9000001 -0.1 0.44999999
3.9000001 -0.1 0.55000001
3.9000001 -0.1 0.64999998
3.9000001 -0.1 0.75
3.9000001 -0.1 0.85000002
3.9000001 -0.1 0.94999999
3.9000001 -0.1 1.05
3.9000001 -0.1 1.15
3.9000001 -0.1 1.25
3.9000001 -0.1 1.35
3.9000001 -0.1 1.45
3.9000001 -0.1 1.55
3.9000001 -0.1 1.65
3.9000001 -0.1 1.75
3.9000001 -0.1 1.85
3.9000001 -0.1 1.95
3.9000001 -0.1 2.05
3.9000001 -0.1 2.1500001
3.9000001 -0.1 2.25
3.9000001 -0.1 2.3499999
3.9000001 -0.1 2.45
4 -0.1 0.050000001
4 -0.1 0.15000001
4 -0.1 0.25
4 -0.1 0.34999999
4 -0.1 0.44999999
4 -0.1 0.55000001
4 -0.1 0.64999998
4 -0.1 0.75
4 -0.1 0.85000002
4 -0.1 0.94999999
4 -0.1 1.05
4 -0.1 1.15
4 -0.1 1.25
4 -0.1 1.35
4 -0.1 1.45
4 -0.1 1.55
4 -0.1 1.65
4 -0.1 1.75
4 -0.1 1.85
4 -0.1 1.95
4 -0.1 2.05
4 -0.1 2.1500001
4 -0.1 2.25
4 -0.1 2.3499999
4 -0.1 2.45
4.0999999 -0.1 0.050000001
4.0999999 -0.1 0.15000001
4.0999999 -0.1 0.25
4.0999999 -0.1 0.34999999
4.0999999 -0.1 0.44999999
4.0999999 -0.1 0.55000001
4.0999999 -0.1 0.64999998
4.0999999 -0.1 0.75
4.0999999 -0.1 0.85000002
4.0999999 -0.1 0.94999999
4.0999999 -0.1 1.05
4.0999999 -0.1 1.15
4.0999999 -0.1 1.25
4.0999999 -0.1 1.35
4.0999999 -0.1 1.45
4.0999999 -0.1 1.55
4.0999999 -0.1 1.65
4.0999999 -0.1 1.75
4.0999999 -0.1 1.85
4.0999999 -0.1 1.95
4.0999999 -0.1 2.05
4.0999999 -0.1 2.1500001
4.0999999 -0.1 2.25
4.0999999 -0.1 2.3499999
4.0999999 -0.1 2.45
3.9000001 -0.2 0.050000001
3.9000001 -0.2 0.15000001
3.9000001 -0.2 0.25
3.9000001 -0.2 0.34999999
3.9000001 -0.2 0.44999999
3.9000001 -0.2 0.55000001
3.9000001 -0.2 0.64999998
3.9000001 -0.2 0.75
3.9000001 -0.2 0.85000002
3.9000001 -0.2 0.94999999
3.9000001 -0.2 1.05
3.9000001 -0.2 1.15
3.9000001 -0.2 1.25
3.9000001 -0.2 1.35
3.9000001 -0.2 1.45
3.9000001 -0.2 1.55
3.9000001 -0.2 1.65
3.9000001 -0.2 1.75
3.9000001 -0.2 1.85
3.9000001 -0.2 1.95
3.9000001 -0.2 2.05
3.9000001 -0.2 2.1500001
3.9000001 -0.2 2.25
3.9000001 -0.2 2.3499999
3.9000001 -0.2 2.45
4 -0.2 0.050000001
4 -0.2 0.15000001
4 -0.2 0.25
4 -0.2 0.34999999
4 -0.2 0.44999999
4 -0.2 0.55000001
4 -0.2 0.64999998
4 -0.2 0.75
4 -0.2 0.85000002
4 -0.2 0.94999999
4 -0.2 1.05
4 -0.2 1.15
4 -0.2 1.25
4 -0.2 1.35
4 -0.2 1.45
4 -0.2 1.55
4 -0.2 1.65
4 -0.2 1.75
4 -0.2 1.85
4 -0.2 1.95
4 -0.2 2.05
4 -0.2 2.1500001
4 -0.2 2.25
4 -0.2 2.3499999
4 -0.2 2.45
4.0999999 -0.2 0.050000001
4.0999999 -0.2 0.15000001
4.0999999 -0.2 0.25
4.0999999 -0.2 0.34999999
4.0999999 -0.2 0.44999999
4.0999999 -0.2 0.55000001
4.0999999 -0.2 0.64999998
4.0999999 -0.2 0.75
4.0999999 -0.2 0.85000002
4.0999999 -0.2 0.94999999
4.0999999 -0.2 1.05
4.0999999 -0.2 1.15
4.0999999 -0.2 1.25
4.0999999 -0.2 1.35
4.0999999 -0.2 1.45
4.0999999 -0.2 1.55
4.0999999 -0.2 1.65
4.0999999 -0.2 1.75
4.0999999 -0.2 1.85
4.0999999 -0.2 1.95
4.0999999 -0.2 2.05
4.0999999 -0.2 2.1500001
4.0999999 -0.2 2.25
4.0999999 -0.2 2.3499999
4.0999999 -0.2 2.45
3.9000001 -0.30000001 0.050000001
3.9000001 -0.30000001 0.15000001
3.9000001 -0.30000001 0.25
3.9000001 -0.30000001 0.34999999
3.9000001 -0.30000001 0.44999999
3.9000001 -0.30000001 0.55000001
3.9000001 -0.30000001 0.64999998
3.9000001 -0.30000001 0.75
3.9000001 -0.30000001 0.85000002
3.9000001 -0.30000001 0.94999999
3.9000001 -0.30000001 1.05
3.9000001 -0.30000001 1.15
3.9000001 -0.30000001 1.25
3.9000001 -0.30000001 1.35
3.9000001 -0.30000001 1.45
3.9000001 -0.30000001 1.55
3.9000001 -0.30000001 1.65
3.9000001 -0.30000001 1.75
3.9000001 -0.30000001 1.85
3.9000001 -0.30000001 1.95
3.9000001 -0.30000001 2.05
3.9000001 -0.30000001 2.1500001
3.9000001 -0.30000001 2.25
3.9000001 -0.30000001 2.3499999
3.9000001 -0.30000001 2.45
4 -0.30000001 0.050000001
4 -0.30000001 0.15000001
4 -0.30000001 0.25
4 -0.30000001 0.34999999
4 -0.30000001 0.44999999
4 -0.30000001 0.55000001
4 -0.30000001 0.64999998
4 -0.30000001 0.75
4 -0.30000001 0.85000002
4 -0.30000001 0.94999999
4 -0.30000001 1.05
4 -0.30000001 1.15
4 -0.30000001 1.25
4 -0.30000001 1.35
4 -0.30000001 1.45
4 -0.30000001 1.55
4 -0.30000001 1.65
4 -0.30000001 1.75
4 -0.30000001 1.85
4 -0.30000001 1.95
4 -0.30000001 2.05
4 -0.30000001 2.1500001
4 -0.30000001 2.25
4 -0.30000001 2.3499999
4 -0.30000001 2.45
4.0999999 -0.30000001 0.050000001
4.0999999 -0.30000001 0.15000001
4.0999999 -0.30000001 0.25
4.0999999 -0.30000001 0.34999999
4.0999999 -0.30000001 0.44999999
4.0999999 -0.30000001 0.55000001
4.0999999 -0.30000001 0.64999998
4.0999999 -0.30000001 0.75
4.0999999 -0.30000001 0.85000002
4.0999999 -0.30000001 0.94999999
4.0999999 -0.30000001 1.05
4.0999999 -0.30000001 1.15
4.0999999 -0.30000001 1.25
4.0999999 -0.30000001 1.35
4.0999999 -0.30000001 1.45
4.0999999 -0.30000001 1.55
4.0999999 -0.30000001 1.65
4.0999999 -0.30000001 1.75
4.0999999 -0.30000001 1.85
4.0999999 -0.30000001 1.95
4.0999999 -0.30000001 2.05
4.0999999 -0.30000001 2.1500001
4.0999999 -0.30000001 2.25
4.0999999 -0.30000001 2.3499999
4.0999999 -0.30000001 2.45
3.9000001 -0.40000001 0.050000001
3.9000001 -0.40000001 0.15000001
3.9000001 -0.40000001 0.25
3.9000001 -0.40000001 0.34999999
3.9000001 -0.40000001 0.44999999
3.9000001 -0.40000001 0.55000001
3.9000001 -0.40000001 0.64999998
3.9000001 -0.40000001 0.75
3.9000001 -0.40000001 0.85000002
3.9000001 -0.40000001 0.94999999
3.9000001 -0.40000001 1.05
3.9000001 -0.40000001 1.15
3.9000001 -0.40000001 1.25
3.9000001 -0.40000001 1.35
3.9000001 -0.40000001 1.45
3.9000001 -0.40000001 1.55
3.9000001 -0.40000001 1.65
3.9000001 -0.40000001 1.75
3.9000001 -0.40000001 1.85
3.9000001 -0.40000001 1.95
3.9000001 -0.40000001 2.05
3.9000001 -0.40000001 2.1500001
3.9000001 -0.40000001 2.25
3.9000001 -0.40000001 2.3499999
3.9000001 -0.40000001 2.45
4 -0.40000001 0.050000001
4 -0.40000001 0.15000001
4 -0.40000001 0.25
4 -0.40000001 0.34999999
4 -0.40000001 0.44999999
4 -0.40000001 0.55000001
4 -0.40000001 0.64999998
4 -0.40000001 0.75
4 -0.40000001 0.85000002
4 -0.40000001 0.94999999
4 -0.40000001 1.05
4 -0.40000001 1.15
4 -0.40000001 1.25
4 -0.40000001 1.35
4 -0.40000001 1.45
4 -0.40000001 1.55
4 -0.40000001 1.65
4 -0.40000001 1.75
4 -0.40000001 1.85
4 -0.40000001 1.95
4 -0.40000001 2.05
4 -0.40000001 2.1500001
4 -0.40000001 2.25
4 -0.40000001 2.3499999
4 -0.40000001 2.45
4.0999999 -0.40000001 0.050000001
4.0999999 -0.40000001 0.15000001
4.0999999 -0.40000001 0.25
4.0999999 -0.40000001 0.34999999
4.0999999 -0.40000001 0.44999999
4.0999999 -0.40000001 0.55000001
4.0999999 -0.40000001 0.64999998
4.0999999 -0.40000001 0.75
4.0999999 -0.40000001 0.85000002
4.0999999 -0.40000001 0.94999999
4.0999999 -0.40000001 1.05
4.0999999 -0.40000001 1.15
4.0999999 -0.40000001 1.25
4.0999999 -0.40000001 1.35
4.0999999 -0.40000001 1.45
4.0999999 -0.40000001 1.55
4.0999999 -0.40000001 1.65
4.0999999 -0.40000001 1.75
4.0999999 -0.40000001 1.85
4.0999999 -0.40000001 1.95
4.0999999 -0.40000001 2.05
4.0999999 -0.40000001 2.1500001
4.0999999 -0.40000001 2.25
4.0999999 -0.40000001 2.3499999
4.0999999 -0.40000001 2.45
3.9000001 -0.5 0.050000001
3.9000001 -0.5 0.15000001
3.9000001 -0.5 0.25
3.9000001 -0.5 0.34999999
3.9000001 -0.5 0.44999999
3.9000001 -0.5 0.55000001
3.9000001 -0.5 0.64999998
3.9000001 -0.5 0.75
3.9000001 -0.5 0.85000002
3.9000001 -0.5 0.94999999
3.9000001 -0.5 1.05
3.9000001 -0.5 1.15
3.9000001 -0.5 1.25
3.9000001 -0.5 1.35
3.9000001 -0.5 1.45
3.9000001 -0.5 1.55
3.9000001 -0.5 1.65
3.9000001 -0.5 1.75
3.9000001 -0.5 1.85
3.9000001 -0.5 1.95
3.9000001 -0.5 2.05
3.9000001 -0.5 2.1500001
3.9000001 -0.5 2.25
3.9000001 -0.5 2.3499999
3.9000001 -0.5 2.45
4 -0.5 0.050000001
4 -0.5 0.15000001
4 -0.5 0.25
4 -0.5 0.34999999
4 -0.5 0.44999999
4 -0.5 0.55000001
4 -0.5 0.64999998
4 -0.5 0.75
4 -0.5 0.85000002
4 -0.5 0.94999999
4 -0.5 1.05
4 -0.5 1.15
4 -0.5 1.25
4 -0.5 1.35
4 -0.5 1.45
4 -0.5 1.55
4 -0.5 1.65
4 -0.5 1.75
4 -0.5 1.85
4 -0.5 1.95
4 -0.5 2.05
4 -0.5 2.1500001
4 -0.5 2.25
4 -0.5 2.3499999
4 -0.5 2.45
4.0999999 -0.5 0.050000001
4.0999999 -0.5 0.15000001
4.0999999 -0.5 0.25
4.0999999 -0.5 0.34999999
4.0999999 -0.5 0.44999999
4.0999999 -0.5 0.55000001
4.0999999 -0.5 0.64999998
4.0999999 -0.5 0.75
4.0999999 -0.5 0.85000002
4.0999999 -0.5 0.94999999
4.0999999 -0.5 1.05
4.0999999 -0.5 1.15
4.0999999 -0.5 1.25
4.0999999 -0.5 1.35
4.0999999 -0.5 1.45
4.0999999 -0.5 1.55
4.0999999 -0.5 1.65
4.0999999 -0.5 1.75
4.0999999 -0.5 1.85
4.0999999 -0.5 1.95
4.0999999 -0.5 2.05
4.0999999 -0.5 2.1500001
4.0999999 -0.5 2.25
4.0999999 -0.5 2.3499999
4.0999999 -0.5 2.45
3.9000001 -0.60000002 0.050000001
3.9000001 -0.60000002 0.15000001
3.9000001 -0.60000002 0.25
3.9000001 -0.60000002 0.34999999
3.9000001 -0.60000002 0.44999999
3.9000001 -0.60000002 0.55000001
3.9000001 -0.60000002 0.64999998
3.9000001 -0.60000002 0.75
3.9000001 -0.60000002 0.85000002
3.9000001 -0.60000002 0.94999999
3.9000001 -0.60000002 1.05
3.9000001 -0.60000002 1.15
3.9000001 -0.60000002 1.25
3.9000001 -0.60000002 1.35
3.9000001 -0.60000002 1.45
3.9000001 -0.60000002 1.55
3.9000001 -0.60000002 1.65
3.9000001 -0.60000002 1.75
3.9000001 -0.60000002 1.85
3.9000001 -0.60000002 1.95
3.9000001 -0.60000002 2.05
3.9000001 -0.60000002 2.1500001
3.9000001 -0.60000002 2.25
3.9000001 -0.60000002 2.3499999
3.9000001 -0.60000002 2.45
4 -0.60000002 0.050000001
4 -0.60000002 0.15000001
4 -0.60000002 0.25
4 -0.60000002 0.34999999
4 -0.60000002 0.44999999
4 -0.60000002 0.55000001
4 -0.60000002 0.64999998
4 -0.60000002 0.75
4 -0.60000002 0.85000002
4 -0.60000002 0.94999999
4 -0.60000002 1.05
4 -0.60000002 1.15
4 -0.60000002 1.25
4 -0.60000002 1.35
4 -0.60000002 1.45
4 -0.60000002 1.55
4 -0.60000002 1.65
4 -0.60000002 1.75
4 -0.60000002 1.85
4 -0.60000002 1.95
4 -0.60000002 2.05
4 -0.60000002 2.1500001
4 -0.60000002 2.25
4 -0.60000002 2.3499999
4 -0.60000002 2.45
4.0999999 -0.60000002 0.050000001
4.0999999 -0.60000002 0.15000001
4.0999999 -0.60000002 0.25
4.0999999 -0.60000002 0.34999999
4.0999999 -0.60000002 0.44999999
4.0999999 -0.60000002 0.55000001
4.0999999 -0.60000002 0.64999998
4.0999999 -0.60000002 0.75
4.0999999 -0.60000002 0.85000002
4.0999999 -0.60000002 0.94999999
4.0999999 -0.60000002 1.05
4.0999999 -0.60000002 1.15
4.0999999 -0.60000002 1.25
4.0999999 -0.60000002 1.35
4.0999999 -0.60000002 1.45
4.0999999 -0.60000002 1.55
4.0999999 -0.60000002 1.65
4.0999999 -0.60000002 1.75
4.0999999 -0.60000002 1.85
4.0999999 -0.60000002 1.95
4.0999999 -0.60000002 2.05
4.0999999 -0.60000002 2.1500001
4.0999999 -0.60000002 2.25
4.0999999 -0.60000002 2.3499999
4.0999999 -0.60000002 2.45
3.9000001 -0.69999999 0.050000001
3.9000001 -0.69999999 0.15000001
3.9000001 -0.69999999 0.25
3.9000001 -0.69999999 0.34999999
3.9000001 -0.69999999 0.44999999
3.9000001 -0.69999999 0.55000001
3.9000001 -0.69999999 0.64999998
3.9000001 -0.69999999 0.75
3.9000001 -0.69999999 0.85000002
3.9000001 -0.69999999 0.94999999
3.9000001 -0.69999999 1.05
3.9000001 -0.69999999 1.15
3.9000001 -0.69999999 1.25
3.9000001 -0.69999999 1.35
3.9000001 -0.69999999 1.45
3.9000001 -0.69999999 1.55
3.9000001 -0.69999999 1.65
3.9000001 -0.69999999 1.75
3.9000001 -0.69999999 1.85
3.9000001 -0.69999999 1.95
3.9000001 -0.69999999 2.05
3.9000001 -0.69999999 2.1500001
3.9000001 -0.69999999 2.25
3.9000001 -0.69999999 2.3499999
3.9000001 -0.69999999 2.45
4 -0.69999999 0.050000001
4 -0.69999999 0.15000001
4 -0.69999999 0.25
4 -0.69999999 0.34999999
4 -0.69999999 0.44999999
4 -0.69999999 0.55000001
4 -0.69999999 0.64999998
4 -0.69999999 0.75
4 -0.69999999 0.85000002
4 -0.69999999 0.94999999
4 -0.69999999 1.05
4 -0.69999999 1.15
4 -0.69999999 1.25
4 -0.69999999 1.35
4 -0.69999999 1.45
4 -0.69999999 1.55
4 -0.69999999 1.65
4 -0.69999999 1.75
4 -0.69999999 1.85
4 -0.69999999 1.95
4 -0.69999999 2.05
4 -0.69999999 2.1500001
4 -0.69999999 2.25
4 -0.69999999 2.3499999
4 -0.69999999 2.45
4.0999999 -0.69999999 0.050000001
4.0999999 -0.69999999 0.15000001
4.0999999 -0.69999999 0.25
4.0999999 -0.69999999 0.34999999
4.0999999 -0.69999999 0.44999999
4.0999999 -0.69999999 0.55000001
4.0999999 -0.69999999 0.64999998
4.0999999 -0.69999999 0.75
4.0999999 -0.69999999 0.85000002
4.0999999 -0.69999999 0.94999999
4.0999999 -0.69999999 1.05
4.0999999 -0.69999999 1.15
4.0999999 -0.69999999 1.25
4.0999999 -0.69999999 1.35
4.0999999 -0.69999999 1.45
4.0999999 -0.69999999 1.55
4.0999999 -0.69999999 1.65
4.0999999 -0.69999999 1.75
4.0999999 -0.69999999 1.85
4.0999999 -0.69999999 1.95
4.0999999 -0.69999999 2.05
4.0999999 -0.69999999 2.1500001
4.0999999 -0.69999999 2.25
4.0999999 -0.69999999 2.3499999
4.0999999 -0.69999999 2.45
3.9000001 -0.80000001 0.050000001
3.9000001 -0.80000001 0.15000001
3.9000001 -0.80000001 0.25
3.9000001 -0.80000001 0.34999999
3.9000001 -0.80000001 0.44999999
3.9000001 -0.80000001 0.55000001
3.9000001 -0.80000001 0.64999998
3.9000001 -0.80000001 0.75
3.9000001 -0.80000001 0.85000002
3.9000001 -0.80000001 0.94999999
3.9000001 -0.80000001 1.05
3.9000001 -0.80000001 1.15
3.9000001 -0.80000001 1.25
3.9000001 -0.80000001 1.35
3.9000001 -0.80000001 1.45
3.9000001 -0.80000001 1.55
3.9000001 -0.80000001 1.65
3.9000001 -0.80000001 1.75
3.9000001 -0.80000001 1.85
3.9000001 -0.80000001 1.95
3.9000001 -0.80000001 2.05
3.9000001 -0.80000001 2.1500001
3.9000001 -0.80000001 2.25
3.9000001 -0.80000001 2.3499999
3.9000001 -0.80000001 2.45
4 -0.80000001 0.050000001
4 -0.80000001 0.15000001
4 -0.80000001 0.25
4 -0.80000001 0.34999999
4 -0.80000001 0.44999999
4 -0.80000001 0.55000001
4 -0.80000001 0.64999998
4 -0.80000001 0.75
4 -0.80000001 0.85000002
4 -0.80000001 0.94999999
4 -0.80000001 1.05
4 -0.80000001 1.15
4 -0.80000001 1.25
4 -0.80000001 1.35
4 -0.80000001 1.45
4 -0.80000001 1.55
4 -0.80000001 1.65
4 -0.80000001 1.75
4 -0.80000001 1.85
4 -0.80000001 1.95
4 -0.80000001 2.05
4 -0.80000001 2.1500001
4 -0.80000001 2.25
4 -0.80000001 2.3499999
4 -0.80000001 2.45
4.0999999 -0.80000001 0.050000001
4.0999999 -0.80000001 0.15000001
4.0999999 -0.80000001 0.25
4.0999999 -0.80000001 0.34999999
4.0999999 -0.80000001 0.44999999
4.0999999 -0.80000001 0.55000001
4.0999999 -0.80000001 0.64999998
4.0999999 -0.80000001 0.75
4.0999999 -0.80000001 0.85000002
4.0999999 -0.80000001 0.94999999
4.0999999 -0.80000001 1.05
4.0999999 -0.80000001 1.15
4.0999999 -0.80000001 1.25
4.0999999 -0.80000001 1.35
4.0999999 -0.80000001 1.45
4.0999999 -0.80000001 1.55
4.0999999 -0.80000001 1.65
4.0999999 -0.80000001 1.75
4.0999999 -0.80000001 1.85
4.0999999 -0.80000001 1.95
4.0999999 -0.80000001 2.05
4.0999999 -0.80000001 2.1500001
4.0999999 -0.80000001 2.25
4.0999999 -0.80000001 2.3499999
4.0999999 -0.80000001 2.45
3.9000001 -0.89999998 0.050000001
3.9000001 -0.89999998 0.15000001
3.9000001 -0.89999998 0.25
3.9000001 -0.89999998 0.34999999
3.9000001 -0.89999998 0.44999999
3.9000001 -0.89999998 0.55000001
3.9000001 -0.89999998 0.64999998
3.9000001 -0.89999998 0.75
3.9000001 -0.89999998 0.85000002
3.9000001 -0.89999998 0.94999999
3.9000001 -0.89999998 1.05
3.9000001 -0.89999998 1.15
3.9000001 -0.89999998 1.25
3.9000001 -0.89999998 1.35
3.9000001 -0.89999998 1.45
3.9000001 -0.89999998 1.55
3.9000001 -0.89999998 1.65
3.9000001 -0.89999998 1.75
3.9000001 -0.89999998 1.85
3.9000001 -0.89999998 1.95
3.9000001 -0.89999998 2.05
3.9000001 -0.89999998 2.1500001
3.9000001 -0.89999998 2.25
3.9000001 -0.89999998 2.3499999
3.9000001 -0.89999998 2.45
4 -0.89999998 0.050000001
4 -0.89999998 0.15000001
4 -0.89999998 0.25
4 -0.89999998 0.34999999
4 -0.89999998 0.44999999
4 -0.89999998 0.55000001
4 -0.89999998 0.64999998
4 -0.89999998 0.75
4 -0.89999998 0.85000002
4 -0.89999998 0.94999999
4 -0.89999998 1.05
4 -0.89999998 1.15
4 -0.89999998 1.25
4 -0.89999998 1.35
4 -0.89999998 1.45
4 -0.89999998 1.55
4 -0.89999998 1.65
4 -0.89999998 1.75
4 -0.89999998 1.85
4 -0.89999998 1.95
4 -0.89999998 2.05
4 -0.89999998 2.1500001
4 -0.89999998 2.25
4 -0.89999998 2.3499999
4 -0.89999998 2.45
4.0999999 -0.89999998 0.050000001
4.0999999 -0.89999998 0.15000001
4.0999999 -0.89999998 0.25
4.0999999 -0.89999998 0.34999999
4.0999999 -0.89999998 0.44999999
4.0999999 -0.89999998 0.55000001
4.0999999 -0.89999998 0.64999998
4.0999999 -0.89999998 0.75
4.0999999 -0.89999998 0.85000002
4.0999999 -0.89999998 0.94999999
4.0999999 -0.89999998 1.05
4.0999999 -0.89999998 1.15
4.0999999 -0.89999998 1.25
4.0999999 -0.89999998 1.35
4.0999999 -0.89999998 1.45
4.0999999 -0.89999998 1.55
4.0999999 -0.89999998 1.65
4.0999999 -0.89999998 1.75
4.0999999 -0.89999998 1.85
4.0999999 -0.89999998 1.95
4.0999999 -0.89999998 2.05
4.0999999 -0.89999998 2.1500001
4.0999999 -0.89999998 2.25
4.0999999 -0.89999998 2.3499999
4.0999999 -0.89999998 2.45
3.9000001 -1 0.050000001
3.9000001 -1 0.15000001
3.9000001 -1 0.25
3.9000001 -1 0.34999999
3.9000001 -1 0.44999999
3.9000001 -1 0.55000001
3.9000001 -1 0.64999998
3.9000001 -1 0.75
3.9000001 -1 0.85000002
3.9000001 -1 0.94999999
3.9000001 -1 1.05
3.9000001 -1 1.15
3.9000001 -1 1.25
3.9000001 -1 1.35
3.9000001 -1 1.45
3.9000001 -1 1.55
3.9000001 -1 1.65
3.9000001 -1 1.75
3.9000001 -1 1.85
3.9000001 -1 1.95
3.9000001 -1 2.05
3.9000001 -1 2.1500001
3.9000001 -1 2.25
3.9000001 -1 2.3499999
3.9000001 -1 2.45
4 -1 0.050000001
4 -1 0.15000001
4 -1 0.25
4 -1 0.34999999
4 -1 0.44999999
4 -1 0.55000001
4 -1 0.64999998
4 -1 0.75
4 -1 0.85000002
4 -1 0.94999999
4 -1 1.05
4 -1 1.15
4 -1 1.25
4 -1 1.35
4 -1 1.45
4 -1 1.55
4 -1 1.65
4 -1 1.75
4 -1 1.85
4 -1 1.95
4 -1 2.05
4 -1 2.1500001
4 -1 2.25
4 -1 2.3499999
4 -1 2.45
4.0999999 -1 0.050000001
4.0999999 -1 0.15000001
4.0999999 -1 0.25
4.0999999 -1 0.34999999
4.0999999 -1 0.44999999
4.0999999 -1 0.55000001
4.0999999 -1 0.64999998
4.0999999 -1 0.75
4.0999999 -1 0.85000002
4.0999999 -1 0.94999999
4.0999999 -1 1.05
4.0999999 -1 1.15
4.0999999 -1 1.25
4.0999999 -1 1.35
4.0999999 -1 1.45
4.0999999 -1 1.55
4.0999999 -1 1.65
4.0999999 -1 1.75
4.0999999 -1 1.85
4.0999999 -1 1.95
4.0999999 -1 2.05
4.0999999 -1 2.1500001
4.0999999 -1 2.25
4.0999999 -1 2.3499999
4.0999999 -1 2.45
3.9000001 -1.1 0.050000001
3.9000001 -1.1 0.15000001
3.9000001 -1.1 0.25
3.9000001 -1.1 0.34999999
3.9000001 -1.1 0.44999999
3.9000001 -1.1 0.55000001
3.9000001 -1.1 0.64999998
3.9000001 -1.1 0.75
3.9000001 -1.1 0.85000002
3.9000001 -1.1 0.94999999
3.9000001 -1.1 1.05
3.9000001 -1.1 1.15
3.9000001 -1.1 1.25
3.9000001 -1.1 1.35
3.9000001 -1.1 1.45
3.9000001 -1.1 1.55
3.9000001 -1.1 1.65
3.9000001 -1.1 1.75
3.9000001 -1.1 1.85
3.9000001 -1.1 1.95
3.9000001 -1.1 2.05
3.9000001 -1.1 2.1500001
3.9000001 -1.1 2.25
3.9000001 -1.1 2.3499999
3.9000001 -1.1 2.45
4 -1.1 0.050000001
4 -1.1 0.15000001
4 -1.1 0.25
4 -1.1 0.34999999
4 -1.1 0.44999999
4 -1.1 0.55000001
4 -1.1 0.64999998
4 -1.1 0.75
4 -1.1 0.85000002
4 -1.1 0.94999999
4 -1.1 1.05
4 -1.1 1.15
4 -1.1 1.25
4 -1.1 1.35
4 -1.1 1.45
4 -1.1 1.55
4 -1.1 1.65
4 -1.1 1.75
4 -1.1 1.85
4 -1.1 1.95
4 -1.1 2.05
4 -1.1 2.1500001
4 -1.1 2.25
4 -1.1 2.3499999
4 -1.1 2.45
4.0999999 -1.1 0.050000001
4.0999999 -1.1 0.15000001
4.0999999 -1.1 0.25
4.0999999 -1.1 0.34999999
4.0999999 -1.1 0.44999999
4.0999999 -1.1 0.55000001
4.0999999 -1.1 0.64999998
4.0999999 -1.1 0.75
4.0999999 -1.1 0.85000002
4.0999999 -1.1 0.94999999
4.0999999 -1.1 1.05
4.0999999 -1.1 1.15
4.0999999 -1.1 1.25
4.0999999 -1.1 1.35
4.0999999 -1.1 1.45
4.0999999 -1.1 1.55
4.0999999 -1.1 1.65
4.0999999 -1.1 1.75
4.0999999 -1.1 1.85
4.0999999 -1.1 1.95
4.0999999 -1.1 2.05
4.0999999 -1.1 2.1500001
4.0999999 -1.1 2.25
4.0999999 -1.1 2.3499999
4.0999999 -1.1 2.45
3.9000001 -1.2 0.050000001
3.9000001 -1.2 0.15000001
3.9000001 -1.2 0.25
3.9000001 -1.2 0.34999999
3.9000001 -1.2 0.44999999
3.9000001 -1.2 0.55000001
3.9000001 -1.2 0.64999998
3.9000001 -1.2 0.75
3.9000001 -1.2 0.85000002
3.9000001 -1.2 0.94999999
3.9000001 -1.2 1.05
3.9000001 -1.2 1.15
3.9000001 -1.2 1.25
3.9000001 -1.2 1.35
3.9000001 -1.2 1.45
3.9000001 -1.2 1.55
3.9000001 -1.2 1.65
3.9000001 -1.2 1.75
3.9000001 -1.2 1.85
3.9000001 -1.2 1.95
3.9000001 -1.2 2.05
3.9000001 -1.2 2.1500001
3.9000001 -1.2 2.25
3.9000001 -1.2 2.3499999
3.9000001 -1.2 2.45
4 -1.2 0.050000001
4 -1.2 0.15000001
4 -1.2 0.25
4 -1.2 0.34999999
4 -1.2 0.44999999
4 -1.2 0.55000001
4 -1.2 0.64999998
4 -1.2 0.75
4 -1.2 0.85000002
4 -1.2 0.94999999
4 -1.2 1.05
4 -1.2 1.15
4 -1.2 1.25
4 -1.2 1.35
4 -1.2 1.45
4 -1.2 1.55
4 -1.2 1.65
4 -1.2 1.75
4 -1.2 1.85
4 -1.2 1.95
4 -1.2 2.05
4 -1.2 2.1500001
4 -1.2 2.25
4 -1.2 2.3499999
4 -1.2 2.45
4.0999999 -1.2 0.050000001
4.0999999 -1.2 0.15000001
4.0999999 -1.2 0.25
4.0999999 -1.2 0.34999999
4.0999999 -1.2 0.44999999
4.0999999 -1.2 0.55000001
4.0999999 -1.2 0.64999998
4.0999999 -1.2 0.75
4.0999999 -1.2 0.85000002
4.0999999 -1.2 0.94999999
4.0999999 -1.2 1.05
4.0999999 -1.2 1.15
4.0999999 -1.2 1.25
4.0999999 -1.2 1.35
4.0999999 -1.2 1.45
4.0999999 -1.2 1.55
4.0999999 -1.2 1.65
4.0999999 -1.2 1.75
4.0999999 -1.2 1.85
4.0999999 -1.2 1.95
4.0999999 -1.2 2.05
4.0999999 -1.2 2.1500001
4.0999999 -1.2 2.25
4.0999999 -1.2 2.3499999
4.0999999 -1.2 2.45
3.9000001 -1.3 0.050000001
3.9000001 -1.3 0.15000001
3.9000001 -1.3 0.25
3.9000001 -1.3 0.34999999
3.9000001 -1.3 0.44999999
3.9000001 -1.3 0.55000001
3.9000001 -1.3 0.64999998
3.9000001 -1.3 0.75
3.9000001 -1.3 0.85000002
3.9000001 -1.3 0.94999999
3.9000001 -1.3 1.05
3.9000001 -1.3 1.15
3.9000001 -1.3 1.25
3.9000001 -1.3 1.35
3.9000001 -1.3 1.45
3.9000001 -1.3 1.55
3.9000001 -1.3 1.65
3.9000001 -1.3 1.75
3.9000001 -1.3 1.85
3.9000001 -1.3 1.95
3.9000001 -1.3 2.05
3.9000001 -1.3 2.1500001
3.9000001 -1.3 2.25
3.9000001 -1.3 2.3499999
3.9000001 -1.3 2.45
4 -1.3 0.050000001
4 -1.3 0.15000001
4 -1.3 0.25
4 -1.3 0.34999999
4 -1.3 0.44999999
4 -1.3 0.55000001
4 -1.3 0.64999998
4 -1.3 0.75
4 -1.3 0.85000002
4 -1.3 0.94999999
4 -1.3 1.05
4 -1.3 1.15
4 -1.3 1.25
4 -1.3 1.35
4 -1.3 1.45
4 -1.3 1.55
4 -1.3 1.65
4 -1.3 1.75
4 -1.3 1.85
4 -1.3 1.95
4 -1.3 2.05
4 -1.3 2.1500001
4 -1.3 2.25
4 -1.3 2.3499999
4 -1.3 2.45
4.0999999 -1.3 0.050000001
4.0999999 -1.3 0.15000001
4.0999999 -1.3 0.25
4.0999999 -1.3 0.34999999
4.0999999 -1.3 0.44999999
4.0999999 -1.3 0.55000001
4.0999999 -1.3 0.64999998
4.0999999 -1.3 0.75
4.0999999 -1.3 0.85000002
4.0999999 -1.3 0.94999999
4.0999999 -1.3 1.05
4.0999999 -1.3 1.15
4.0999999 -1.3 1.25
4.0999999 -1.3 1.35
4.0999999 -1.3 1.45
4.0999999 -1.3 1.55
4.0999999 -1.3 1.65
4.0999999 -1.3 1.75
4.0999999 -1.3 1.85
4.0999999 -1.3 1.95
4.0999999 -1.3 2.05
4.0999999 -1.3 2.1500001
4.0999999 -1.3 2.25
4.0999999 -1.3 2.3499999
4.0999999 -1.3 2.45
3.9000001 -1.4 0.050000001
3.9000001 -1.4 0.15000001
3.9000001 -1.4 0.25
3.9000001 -1.4 0.34999999
3.9000001 -1.4 0.44999999
3.9000001 -1.4 0.55000001
3.9000001 -1.4 0.64999998
3.9000001 -1.4 0.75
3.9000001 -1.4 0.85000002
3.9000001 -1.4 0.94999999
3.9000001 -1.4 1.05
3.9000001 -1.4 1.15
3.9000001 -1.4 1.25
3.9000001 -1.4 1.35
3.9000001 -1.4 1.45
3.9000001 -1.4 1.55
3.9000001 -1.4 1.65
3.9000001 -1.4 1.75
3.9000001 -1.4 1.85
3.9000001 -1.4 1.95
3.9000001 -1.4 2.05
3.9000001 -1.4 2.1500001
3.9000001 -1.4 2.25
3.9000001 -1.4 2.3499999
3.9000001 -1.4 2.45
4 -1.4 0.050000001
4 -1.4 0.15000001
4 -1.4 0.25
4 -1.4 0.34999999
4 -1.4 0.44999999
4 -1.4 0.55000001
4 -1.4 0.64999998
4 -1.4 0.75
4 -1.4 0.85000002
4 -1.4 0.94999999
4 -1.4 1.05
4 -1.4 1.15
4 -1.4 1.25
4 -1.4 1.35
4 -1.4 1.45
4 -1.4 1.55
4 -1.4 1.65
4 -1.4 1.75
4 -1.4 1.85
4 -1.4 1.95
4 -1.4 2.05
4 -1.4 2.1500001
4 -1.4 2.25
4 -1.4 2.3499999
4 -1.4 2.45
4.0999999 -1.4 0.050000001
4.0999999 -1.4 0.15000001
4.0999999 -1.4 0.25
4.0999999 -1.4 0.34999999
4.0999999 -1.4 0.44999999
4.0999999 -1.4 0.55000001
4.0999999 -1.4 0.64999998
4.0999999 -1.4 0.75
4.0999999 -1.4 0.85000002
4.0999999 -1.4 0.94999999
4.0999999 -1.4 1.05
4.0999999 -1.4 1.15
4.0999999 -1.4 1.25
4.0999999 -1.4 1.35
4.0999999 -1.4 1.45
4.0999999 -1.4 1.55
4.0999999 -1.4 1.65
4.0999999 -1.4 1.75
4.0999999 -1.4 1.85
4.0999999 -1.4 1.95
4.0999999 -1.4 2.05
4.0999999 -1.4 2.1500001
4.0999999 -1.4 2.25
4.0999999 -1.4 2.3499999
4.0999999 -1.4 2.45
3.9000001 -1.5 0.050000001
3.9000001 -1.5 0.15000001
3.9000001 -1.5 0.25
3.9000001 -1.5 0.34999999
3.9000001 -1.5 0.44999999
3.9000001 -1.5 0.55000001
3.9000001 -1.5 0.64999998
3.9000001 -1.5 0.75
3.9000001 -1.5 0.85000002
3.9000001 -1.5 0.94999999
3.9000001 -1.5 1.05
3.9000001 -1.5 1.15
3.9000001 -1.5 1.25
3.9000001 -1.5 1.35
3.9000001 -1.5 1.45
3.9000001 -1.5 1.55
3.9000001 -1.5 1.65
3.9000001 -1.5 1.75
3.9000001 -1.5 1.85
3.9000001 -1.5 1.95
3.9000001 -1.5 2.05
3.9000001 -1.5 2.1500001
3.9000001 -1.5 2.25
3.9000001 -1.5 2.3499999
3.9000001 -1.5 2.45
4 -1.5 0.050000001
4 -1.5 0.15000001
4 -1.5 0.25
4 -1.5 0.34999999
4 -1.5 0.44999999
4 -1.5 0.55000001
4 -1.5 0.64999998
4 -1.5 0.75
4 -1.5 0.85000002
4 -1.5 0.94999999
4 -1.5 1.05
4 -1.5 1.15
4 -1.5 1.25
4 -1.5 1.35
4 -1.5 1.45
4 -1.5 1.55
4 -1.5 1.65
4 -1.5 1.75
4 -1.5 1.85
4 -1.5 1.95
4 -1.5 2.05
4 -1.5 2.1500001
4 -1.5 2.25
4 -1.5 2.3499999
4 -1.5 2.45
4.0999999 -1.5 0.050000001
4.0999999 -1.5 0.15000001
4.0999999 -1.5 0.25
4.0999999 -1.5 0.34999999
4.0999999 -1.5 0.44999999
4.0999999 -1.5 0.55000001
4.0999999 -1.5 0.64999998
4.0999999 -1.5 0.75
4.0999999 -1.5 0.85000002
4.0999999 -1.5 0.94999999
4.0999999 -1.5 1.05
4.0999999 -1.5 1.15
4.0999999 -1.5 1.25
4.0999999 -1.5 1.35
4.0999999 -1.5 1.45
4.0999999 -1.5 1.55
4.0999999 -1.5 1.65
4.0999999 -1.5 1.75
4.0999999 -1.5 1.85
4.0999999 -1.5 1.95
4.0999999 -1.5 2.05
4.0999999 -1.5 2.1500001
4.0999999 -1.5 2.25
4.0999999 -1.5 2.3499999
4.0999999 -1.5 2.45
3.9000001 -1.6 0.050000001
3.9000001 -1.6 0.15000001
3.9000001 -1.6 0.25
3.9000001 -1.6 0.34999999
3.9000001 -1.6 0.44999999
3.9000001 -1.6 0.55000001
3.9000001 -1.6 0.64999998
3.9000001 -1.6 0.75
3.9000001 -1.6 0.85000002
3.9000001 -1.6 0.94999999
3.9000001 -1.6 1.05
3.9000001 -1.6 1.15
3.9000001 -1.6 1.25
3.9000001 -1.6 1.35
3.9000001 -1.6 1.45
3.9000001 -1.6 1.55
3.9000001 -1.6 1.65
3.9000001 -1.6 1.75
3.9000001 -1.6 1.85
3.9000001 -1.6 1.95
3.9000001 -1.6 2.05
3.9000001 -1.6 2.1500001
3.9000001 -1.6 2.25
3.9000001 -1.6 2.3499999
3.9000001 -1.6 2.45
4 -1.6 0.050000001
4 -1.6 0.15000001
4 -1.6 0.25
4 -1.6 0.34999999
4 -1.6 0.44999999
4 -1.6 0.55000001
4 -1.6 0.64999998
4 -1.6 0.75
4 -1.6 0.85000002
4 -1.6 0.94999999
4 -1.6 1.05
4 -1.6 1.15
4 -1.6 1.25
4 -1.6 1.35
4 -1.6 1.45
4 -1.6 1.55
4 -1.6 1.65
4 -1.6 1.75
4 -1.6 1.85
4 -1.6 1.95
4 -1.6 2.05
4 -1.6 2.1500001
4 -1.6 2.25
4 -1.6 2.3499999
4 -1.6 2.45
4.0999999 -1.6 0.050000001
4.0999999 -1.6 0.15000001
4.0999999 -1.6 0.25
4.0999999 -1.6 0.34999999
4.0999999 -1.6 0.44999999
4.0999999 -1.6 0.55000001
4.0999999 -1.6 0.64999998
4.0999999 -1.6 0.75
4.0999999 -1.6 0.85000002
4.0999999 -1.6 0.94999999
4.0999999 -1.6 1.05
4.0999999 -1.6 1.15
4.0999999 -1.6 1.25
4.0999999 -1.6 1.35
4.0999999 -1.6 1.45
4.0999999 -1.6 1.55
4.0999999 -1.6 1.65
4.0999999 -1.6 1.75
4.0999999 -1.6 1.85
4.0999999 -1.6 1.95
4.0999999 -1.6 2.05
4.0999999 -1.6 2.1500001
4.0999999 -1.6 2.25
4.0999999 -1.6 2.3499999
4.0999999 -1.6 2.45
